<?xml version="1.0" encoding="utf-8"?>
<!-- Generator: Adobe Illustrator 17.0.0, SVG Export Plug-In . SVG Version: 6.00 Build 0)  -->
<!DOCTYPE svg PUBLIC "-//W3C//DTD SVG 1.1//EN" "http://www.w3.org/Graphics/SVG/1.1/DTD/svg11.dtd">
<svg version="1.1" id="Layer_1" xmlns="http://www.w3.org/2000/svg" xmlns:xlink="http://www.w3.org/1999/xlink" x="0px" y="0px"
	 width="181.13px" height="36.86px" viewBox="0 0 181.13 36.86" enable-background="new 0 0 181.13 36.86" xml:space="preserve">
<g>
	<path fill="#FFFFFF" d="M91.965,32.92h-0.446l2.444-6.702h0.436L91.965,32.92z"/>
	<path fill="#FFFFFF" d="M95.632,32.92h-0.446l2.444-6.702h0.436L95.632,32.92z"/>
	<path fill="#FFFFFF" d="M104.74,29.555h-2.958l0.01,3.365h-0.407l-0.01-6.702h3.87v0.378h-3.462v2.551h2.958V29.555z"/>
	<path fill="#FFFFFF" d="M107.952,28.44c-0.068-0.019-0.117-0.019-0.184-0.019c-0.65,0-1.193,0.524-1.29,1.222l0.01,3.278h-0.407
		l-0.01-4.384c0-0.213-0.019-0.456-0.049-0.475h0.456v0.718c0.31-0.485,0.785-0.766,1.338-0.766c0.068,0,0.155,0,0.233,0.029
		L107.952,28.44z"/>
	<path fill="#FFFFFF" d="M110.833,28.013c1.241,0,2.25,1.125,2.25,2.512c0,1.368-1.009,2.493-2.25,2.493
		c-1.251,0-2.279-1.125-2.279-2.493C108.554,29.138,109.582,28.013,110.833,28.013z M110.833,32.61c1.009,0,1.833-0.94,1.833-2.085
		c0-1.164-0.824-2.104-1.833-2.104c-1.038,0-1.872,0.941-1.872,2.104C108.961,31.67,109.795,32.61,110.833,32.61z"/>
	<path fill="#FFFFFF" d="M114.103,28.498v0.262c0.31-0.485,0.795-0.766,1.348-0.766c0.912,0,1.61,0.786,1.639,1.775l0.029,3.152
		h-0.407l-0.01-3.152c-0.019-0.766-0.601-1.368-1.299-1.368c-0.65,0-1.203,0.524-1.3,1.222l0.01,3.297h-0.407l-0.01-4.403
		c0-0.213-0.029-0.388-0.048-0.407h0.456V28.498z"/>
	<path fill="#FFFFFF" d="M119.137,26.219v1.92h1.309v0.417h-1.309l0.01,4.364h-0.388c0,0-0.01-2.881-0.01-4.364h-0.737v-0.417h0.718
		v-1.92H119.137z"/>
	<path fill="#FFFFFF" d="M121.214,30.273v-0.407h3.346v0.407H121.214z"/>
	<path fill="#FFFFFF" d="M128.692,29.555h-2.958v2.958h3.462l0.01,0.407h-3.87l-0.01-6.702h3.87v0.388h-3.462v2.541h2.958V29.555z"
		/>
	<path fill="#FFFFFF" d="M130.391,28.498v0.262c0.31-0.485,0.795-0.766,1.348-0.766c0.911,0,1.61,0.786,1.639,1.775l0.029,3.152H133
		l-0.01-3.152c-0.019-0.766-0.601-1.368-1.3-1.368c-0.65,0-1.203,0.524-1.299,1.222l0.01,3.297h-0.407l-0.01-4.403
		c0-0.213-0.029-0.388-0.049-0.407h0.456V28.498z"/>
	<path fill="#FFFFFF" d="M138.063,32.61c-0.33,0.223-0.854,0.349-1.435,0.378c-1.28-0.029-2.328-1.125-2.328-2.512
		c0-1.358,1.047-2.454,2.328-2.463h0.019h-0.019c0.582,0,1.076,0.126,1.435,0.378v-2.172h0.407v5.771c0,0,0,0.844,0.068,0.902
		h-0.475V32.61z M136.628,28.421c-1.076,0.029-1.93,0.95-1.93,2.056c0,1.135,0.854,2.075,1.93,2.114h0.019
		c0.785-0.039,1.416-0.301,1.416-0.601v-3.055C137.986,28.653,137.394,28.421,136.628,28.421z"/>
	<path fill="#FFFFFF" d="M141.838,26.219h0.407h2.066c1.3,0.019,2.338,1.503,2.338,3.336c0,1.833-1.019,3.317-2.318,3.346
		l0.01,0.019h-2.493L141.838,26.219z M142.246,26.626v5.887h2.085v-0.019c1.057-0.029,1.91-1.338,1.91-2.938
		c0-1.591-0.853-2.91-1.93-2.929H142.246z"/>
	<path fill="#FFFFFF" d="M150.636,32.251l0.165,0.359c-0.33,0.184-0.727,0.311-1.164,0.388h-0.01c-0.078,0.01-0.165,0.01-0.252,0.01
		c-1.076,0-1.959-1.028-2.037-2.318v-0.184c0-1.377,0.873-2.502,1.93-2.502c1.077,0,1.911,1.067,1.911,2.454v0.233h-3.424
		c0.058,1.076,0.756,1.91,1.619,1.92C149.793,32.61,150.316,32.406,150.636,32.251z M150.791,30.292
		c-0.077-1.047-0.727-1.872-1.523-1.872c-0.776,0-1.425,0.824-1.513,1.872H150.791z"/>
	<path fill="#FFFFFF" d="M151.714,28.071h0.436l1.736,4.287l1.726-4.287h0.466l-1.969,4.849h-0.437L151.714,28.071z"/>
	<path fill="#FFFFFF" d="M159.911,32.251l0.165,0.359c-0.33,0.184-0.727,0.311-1.164,0.388h-0.01c-0.078,0.01-0.165,0.01-0.252,0.01
		c-1.076,0-1.959-1.028-2.037-2.318v-0.184c0-1.377,0.873-2.502,1.93-2.502c1.077,0,1.911,1.067,1.911,2.454v0.233h-3.424
		c0.058,1.076,0.756,1.91,1.619,1.92C159.067,32.61,159.591,32.406,159.911,32.251z M160.066,30.292
		c-0.077-1.047-0.727-1.872-1.523-1.872c-0.776,0-1.425,0.824-1.513,1.872H160.066z"/>
	<path fill="#FFFFFF" d="M161.386,26.219h0.407l0.01,6.702h-0.407L161.386,26.219z"/>
	<path fill="#FFFFFF" d="M164.82,28.013c1.241,0,2.25,1.125,2.25,2.512c0,1.368-1.009,2.493-2.25,2.493
		c-1.251,0-2.279-1.125-2.279-2.493C162.541,29.138,163.569,28.013,164.82,28.013z M164.82,32.61c1.009,0,1.833-0.94,1.833-2.085
		c0-1.164-0.824-2.104-1.833-2.104c-1.038,0-1.872,0.941-1.872,2.104C162.948,31.67,163.782,32.61,164.82,32.61z"/>
	<path fill="#FFFFFF" d="M168.09,28.372c0.33-0.213,0.863-0.388,1.455-0.388c1.299,0.029,2.337,1.125,2.337,2.493
		c0,1.396-1.038,2.522-2.337,2.522c-0.563,0-1.115-0.155-1.445-0.378v2.192h-0.397v-5.848c0,0-0.029-0.805-0.097-0.882h0.485V28.372
		z M169.544,32.6c1.067-0.029,1.93-0.96,1.93-2.124c0-1.145-0.863-2.075-1.93-2.075c-0.805,0-1.455,0.252-1.455,0.562v3.113
		C168.157,32.358,168.807,32.571,169.544,32.6z"/>
	<path fill="#FFFFFF" d="M175.791,32.251l0.165,0.359c-0.33,0.184-0.727,0.311-1.164,0.388h-0.01c-0.078,0.01-0.165,0.01-0.252,0.01
		c-1.076,0-1.959-1.028-2.037-2.318v-0.184c0-1.377,0.873-2.502,1.93-2.502c1.077,0,1.911,1.067,1.911,2.454v0.233h-3.424
		c0.058,1.076,0.756,1.91,1.619,1.92C174.948,32.61,175.471,32.406,175.791,32.251z M175.947,30.292
		c-0.077-1.047-0.727-1.872-1.523-1.872c-0.776,0-1.425,0.824-1.513,1.872H175.947z"/>
	<path fill="#FFFFFF" d="M178.954,28.44c-0.068-0.019-0.116-0.019-0.184-0.019c-0.65,0-1.193,0.524-1.29,1.222l0.01,3.278h-0.407
		l-0.01-4.384c0-0.213-0.019-0.456-0.048-0.475h0.456v0.718c0.311-0.485,0.786-0.766,1.339-0.766c0.068,0,0.155,0,0.233,0.029
		L178.954,28.44z"/>
</g>
<g>
	<path fill="#FFFFFF" d="M1,1.225h6.935v2.439H5.792v16.505h7.372c0.15,0,0.301-0.035,0.451-0.106
		c0.15-0.07,0.287-0.162,0.409-0.275c0.122-0.113,0.221-0.242,0.296-0.387c0.075-0.146,0.113-0.293,0.113-0.444v-2.692h2.678v6.329
		H1v-2.424h2.03V3.664H1V1.225z"/>
	<path fill="#FFFFFF" d="M25.957,7.991h4.708v12.178h1.621v2.424h-4.257v-1.353c-0.658,0.507-1.374,0.902-2.149,1.184
		c-0.775,0.282-1.605,0.423-2.488,0.423c-0.733,0-1.398-0.105-1.994-0.317c-0.597-0.211-1.104-0.54-1.522-0.987
		c-0.418-0.446-0.74-1.013-0.965-1.698c-0.226-0.686-0.338-1.504-0.338-2.453v-6.977h-1.973V7.991h4.708v9.092
		c0,1.118,0.258,1.964,0.775,2.537c0.517,0.573,1.259,0.86,2.227,0.86c0.573,0,1.177-0.104,1.811-0.31
		c0.634-0.207,1.233-0.493,1.797-0.86v-8.894h-1.959V7.991z"/>
	<path fill="#FFFFFF" d="M34.634,7.991h4.764v12.178h2.199v2.424h-6.935v-2.424h2.086v-9.754h-2.114V7.991z M36.255,2.818
		c0-0.244,0.049-0.477,0.148-0.698c0.099-0.221,0.23-0.413,0.395-0.578c0.164-0.164,0.359-0.296,0.585-0.395
		C37.608,1.049,37.848,1,38.101,1c0.244,0,0.477,0.049,0.698,0.148c0.221,0.099,0.413,0.23,0.578,0.395
		c0.164,0.165,0.296,0.357,0.395,0.578c0.099,0.221,0.148,0.453,0.148,0.698c0,0.254-0.049,0.493-0.148,0.719
		c-0.099,0.225-0.23,0.425-0.395,0.599c-0.165,0.174-0.357,0.31-0.578,0.409c-0.221,0.099-0.454,0.148-0.698,0.148
		c-0.254,0-0.493-0.049-0.719-0.148c-0.225-0.099-0.421-0.235-0.585-0.409c-0.165-0.174-0.296-0.374-0.395-0.599
		C36.304,3.311,36.255,3.072,36.255,2.818z"/>
	<path fill="#FFFFFF" d="M42.226,20.973l7.4-10.797H44.96v2.058h-2.593V7.991h10.445v1.663l-7.386,10.741h4.99v-2.481h2.721v4.68
		h-10.91V20.973z"/>
</g>
<g>
	<path fill="#00A79D" d="M65.321,1.225h6.935v2.439h-1.847l-6.921,18.93h-3.876L52.79,3.664h-1.889V1.225h6.935v2.439h-1.861
		l5.483,16.477l5.878-16.477h-2.016V1.225z"/>
	<path fill="#00A79D" d="M72.349,15.631c0,0.414,0.031,0.792,0.092,1.135c0.061,0.343,0.148,0.669,0.261,0.98
		c0.347,0.94,0.904,1.647,1.67,2.121c0.766,0.475,1.632,0.712,2.601,0.712c0.761,0,1.501-0.106,2.22-0.317
		c0.719-0.211,1.473-0.543,2.262-0.994l1.057,1.79c-0.959,0.658-1.922,1.147-2.89,1.466c-0.968,0.319-1.973,0.479-3.016,0.479
		c-0.987,0-1.901-0.164-2.741-0.493c-0.841-0.329-1.565-0.818-2.171-1.466c-0.606-0.648-1.08-1.456-1.423-2.424
		c-0.343-0.968-0.514-2.095-0.514-3.383c0-1.043,0.146-2.027,0.437-2.953c0.291-0.926,0.726-1.734,1.304-2.424
		c0.578-0.691,1.294-1.238,2.15-1.642c0.855-0.404,1.851-0.606,2.988-0.606c1.099,0,2.018,0.167,2.756,0.5
		c0.738,0.334,1.339,0.775,1.804,1.325s0.817,1.177,1.057,1.882s0.407,1.424,0.501,2.157c0.047,0.357,0.077,0.719,0.092,1.085
		c0.014,0.366,0.021,0.724,0.021,1.071H72.349z M76.451,9.81c-0.611,0-1.144,0.087-1.6,0.261c-0.456,0.174-0.844,0.423-1.163,0.747
		c-0.319,0.324-0.575,0.721-0.768,1.191c-0.192,0.47-0.336,0.996-0.43,1.579h7.569c-0.038-0.545-0.125-1.047-0.261-1.508
		c-0.136-0.46-0.345-0.86-0.627-1.198s-0.644-0.601-1.086-0.789C77.644,9.904,77.099,9.81,76.451,9.81z"/>
	<path fill="#00A79D" d="M94.332,20.169h2.058v-6.667c0-1.118-0.284-1.966-0.853-2.544c-0.568-0.578-1.383-0.867-2.446-0.867
		c-0.611,0-1.226,0.146-1.846,0.437c-0.62,0.292-1.208,0.653-1.762,1.086v8.556h2.058v2.424h-6.822v-2.424h2.03v-9.754h-2.03V7.991
		h4.651v1.72h0.028c0.31-0.272,0.641-0.531,0.994-0.775c0.352-0.244,0.721-0.456,1.107-0.634c0.385-0.178,0.787-0.319,1.205-0.423
		c0.418-0.104,0.857-0.155,1.318-0.155c0.78,0,1.485,0.108,2.114,0.324c0.629,0.217,1.165,0.545,1.607,0.987
		c0.442,0.442,0.783,1.008,1.022,1.699c0.24,0.691,0.359,1.506,0.359,2.446v6.991h2.03v2.424h-6.822V20.169z"/>
	<path fill="#00A79D" d="M106.053,7.991h3.425v2.129h-3.453l-0.042,8.429c0,0.573,0.065,1.038,0.197,1.395
		c0.132,0.357,0.343,0.604,0.635,0.74c0.291,0.136,0.62,0.205,0.986,0.205c0.395,0,0.742-0.035,1.043-0.106s0.629-0.19,0.987-0.359
		l0.606,1.762c-0.451,0.235-0.926,0.42-1.423,0.557c-0.498,0.136-1.086,0.204-1.762,0.204c-0.639,0-1.196-0.077-1.67-0.232
		c-0.475-0.155-0.874-0.416-1.198-0.783c-0.324-0.366-0.566-0.857-0.726-1.473c-0.16-0.616-0.24-1.384-0.24-2.305l0.042-8.034
		h-2.326V7.991h2.354V4.495l2.565-1.212V7.991z"/>
	<path fill="#00A79D" d="M119.917,7.991h4.708v12.178h1.621v2.424h-4.256v-1.353c-0.658,0.507-1.374,0.902-2.15,1.184
		c-0.775,0.282-1.605,0.423-2.488,0.423c-0.733,0-1.398-0.105-1.995-0.317c-0.597-0.211-1.104-0.54-1.522-0.987
		c-0.418-0.446-0.74-1.013-0.965-1.698c-0.226-0.686-0.338-1.504-0.338-2.453v-6.977h-1.973V7.991h4.707v9.092
		c0,1.118,0.259,1.964,0.775,2.537c0.517,0.573,1.259,0.86,2.227,0.86c0.573,0,1.177-0.104,1.811-0.31
		c0.634-0.207,1.233-0.493,1.797-0.86v-8.894h-1.959V7.991z"/>
	<path fill="#00A79D" d="M139.208,11.078h-2.678v-0.902c-0.31,0-0.627,0.059-0.951,0.176c-0.324,0.118-0.627,0.296-0.909,0.535
		c-0.282,0.24-0.529,0.545-0.74,0.917s-0.364,0.81-0.458,1.318v7.048h2.481v2.424h-7.245v-2.424h2.016l0.014-9.754h-2.03V7.991
		h4.665v2.016c0.169-0.301,0.36-0.58,0.571-0.838c0.211-0.259,0.446-0.484,0.705-0.677c0.258-0.193,0.545-0.343,0.86-0.451
		c0.315-0.108,0.655-0.162,1.022-0.162c0.489,0,0.949,0,1.381,0c0.432,0,0.865,0.01,1.297,0.028V11.078z"/>
	<path fill="#00A79D" d="M140.499,15.292c0.01-1.156,0.195-2.208,0.557-3.157s0.867-1.764,1.515-2.446
		c0.648-0.681,1.419-1.205,2.311-1.572c0.893-0.366,1.875-0.55,2.946-0.55c1.08,0,2.07,0.183,2.967,0.55
		c0.897,0.366,1.665,0.886,2.304,1.557s1.137,1.483,1.494,2.432c0.357,0.949,0.535,2.001,0.535,3.157
		c0,1.137-0.178,2.183-0.535,3.136c-0.357,0.954-0.855,1.774-1.494,2.459c-0.639,0.686-1.407,1.22-2.304,1.6
		c-0.898,0.381-1.887,0.571-2.967,0.571c-1.099,0-2.096-0.188-2.988-0.564c-0.893-0.376-1.659-0.904-2.297-1.586
		c-0.639-0.681-1.137-1.496-1.494-2.446C140.692,17.487,140.508,16.439,140.499,15.292z M143.276,15.292
		c0,0.836,0.12,1.593,0.359,2.269c0.24,0.677,0.568,1.252,0.987,1.727c0.418,0.474,0.902,0.841,1.452,1.099
		c0.55,0.259,1.135,0.387,1.755,0.387c0.648,0,1.252-0.127,1.811-0.38c0.559-0.254,1.045-0.618,1.459-1.093
		c0.413-0.474,0.738-1.05,0.972-1.726c0.235-0.677,0.352-1.438,0.352-2.284c0-0.883-0.117-1.668-0.352-2.354
		c-0.235-0.686-0.557-1.259-0.965-1.719c-0.409-0.46-0.895-0.808-1.459-1.043c-0.564-0.235-1.17-0.353-1.818-0.353
		c-0.62,0-1.205,0.118-1.755,0.353c-0.55,0.235-1.034,0.583-1.452,1.043c-0.418,0.46-0.747,1.034-0.987,1.719
		C143.396,13.625,143.276,14.409,143.276,15.292z"/>
	<path fill="#00A79D" d="M160.664,7.991h3.425v2.129h-3.453l-0.042,8.429c0,0.573,0.065,1.038,0.198,1.395
		c0.131,0.357,0.343,0.604,0.634,0.74c0.291,0.136,0.62,0.205,0.987,0.205c0.395,0,0.742-0.035,1.043-0.106s0.629-0.19,0.987-0.359
		l0.606,1.762c-0.451,0.235-0.926,0.42-1.423,0.557c-0.498,0.136-1.086,0.204-1.762,0.204c-0.639,0-1.196-0.077-1.67-0.232
		c-0.475-0.155-0.874-0.416-1.198-0.783c-0.324-0.366-0.566-0.857-0.726-1.473s-0.24-1.384-0.24-2.305l0.042-8.034h-2.326V7.991
		h2.354V4.495l2.565-1.212V7.991z"/>
	<path fill="#00A79D" d="M168.101,15.631c0,0.414,0.03,0.792,0.092,1.135c0.061,0.343,0.148,0.669,0.261,0.98
		c0.348,0.94,0.904,1.647,1.671,2.121c0.765,0.475,1.632,0.712,2.601,0.712c0.761,0,1.501-0.106,2.22-0.317
		c0.719-0.211,1.473-0.543,2.262-0.994l1.057,1.79c-0.959,0.658-1.922,1.147-2.89,1.466c-0.968,0.319-1.973,0.479-3.016,0.479
		c-0.987,0-1.901-0.164-2.742-0.493c-0.841-0.329-1.565-0.818-2.171-1.466c-0.606-0.648-1.081-1.456-1.423-2.424
		c-0.343-0.968-0.514-2.095-0.514-3.383c0-1.043,0.146-2.027,0.437-2.953c0.291-0.926,0.726-1.734,1.304-2.424
		c0.578-0.691,1.294-1.238,2.149-1.642c0.855-0.404,1.851-0.606,2.988-0.606c1.099,0,2.018,0.167,2.756,0.5
		c0.737,0.334,1.339,0.775,1.804,1.325c0.465,0.55,0.817,1.177,1.057,1.882c0.24,0.705,0.407,1.424,0.501,2.157
		c0.047,0.357,0.077,0.719,0.092,1.085c0.014,0.366,0.021,0.724,0.021,1.071H168.101z M172.202,9.81c-0.611,0-1.144,0.087-1.6,0.261
		c-0.456,0.174-0.844,0.423-1.163,0.747c-0.32,0.324-0.576,0.721-0.768,1.191c-0.193,0.47-0.336,0.996-0.43,1.579h7.569
		c-0.038-0.545-0.125-1.047-0.261-1.508c-0.136-0.46-0.345-0.86-0.627-1.198c-0.282-0.338-0.644-0.601-1.086-0.789
		C173.395,9.904,172.851,9.81,172.202,9.81z"/>
</g>
</svg>
